# xmcd
#
# Track frame offsets:
#	182
#	10805
#	21595
#	30160
#	41932
#	53302
#	64167
#	74385
#	86730
#	96000
#	106805
#	116630
#
# Disc length: 1745
#
# Revision: 2
# Processed by: cddbd v1.5.1PL0 Copyright (c) Steve Scherf et al.
# Submitted via: audiograbber 1.81.01
# Normalized: r1:DSETVAR1
#
DISCID=9506cf0c
DTITLE=Various Artist - The country collection Vol. 4
DYEAR=1900
DGENRE=Country
TTITLE0=Patsy Cline - Honky tonk merry go round
TTITLE1=Wajlon Jennings - Sally was a good old girl
TTITLE2=Conway Twitty - Blue is the way I feel
TTITLE3=Willie Nelson - Is there something o your mind
TTITLE4=B J Thomas - How many tears will it take
TTITLE5=Donna Fargo - Wishful thinking
TTITLE6=Faron Young - Hello walls
TTITLE7=Stonewall Jackson - Ol' blue
TTITLE8=George Jones - The race is on
TTITLE9=Faron Young - Wire me up
TTITLE10=Buck Owens - Rhythm and booze
TTITLE11=George Jones - Cold cold heart
EXTD=
EXTT0=
EXTT1=
EXTT2=
EXTT3=
EXTT4=
EXTT5=
EXTT6=
EXTT7=
EXTT8=
EXTT9=
EXTT10=
EXTT11=
PLAYORDER=
